<?xml version="1.0" encoding="UTF-8" standalone="no"?>
<!-- Created with Inkscape (http://www.inkscape.org/) -->
<svg
   xmlns:dc="http://purl.org/dc/elements/1.1/"
   xmlns:cc="http://web.resource.org/cc/"
   xmlns:rdf="http://www.w3.org/1999/02/22-rdf-syntax-ns#"
   xmlns:svg="http://www.w3.org/2000/svg"
   xmlns="http://www.w3.org/2000/svg"
   xmlns:sodipodi="http://sodipodi.sourceforge.net/DTD/sodipodi-0.dtd"
   xmlns:inkscape="http://www.inkscape.org/namespaces/inkscape"
   version="1.0"
   width="643.10474"
   height="159.13036"
   id="svg2"
   sodipodi:version="0.32"
   inkscape:version="0.45.1"
   sodipodi:docname="tivtaam.svg"
   inkscape:output_extension="org.inkscape.output.svg.inkscape"
   sodipodi:docbase="C:\Documents and Settings\Administrator\Desktop">
  <metadata
     id="metadata9">
    <rdf:RDF>
      <cc:Work
         rdf:about="">
        <dc:format>image/svg+xml</dc:format>
        <dc:type
           rdf:resource="http://purl.org/dc/dcmitype/StillImage" />
      </cc:Work>
    </rdf:RDF>
  </metadata>
  <sodipodi:namedview
     inkscape:window-height="579"
     inkscape:window-width="748"
     inkscape:pageshadow="2"
     inkscape:pageopacity="0.0"
     guidetolerance="10.0"
     gridtolerance="10.0"
     objecttolerance="10.0"
     borderopacity="1.0"
     bordercolor="#666666"
     pagecolor="#ffffff"
     id="base"
     inkscape:zoom="0.35919193"
     inkscape:cx="372.04724"
     inkscape:cy="526.18109"
     inkscape:window-x="132"
     inkscape:window-y="132"
     inkscape:current-layer="svg2" />
  <defs
     id="defs4" />
  <g
     id="layer1"
     transform="translate(-61.308452,-491.71549)">
    <g
       transform="translate(0,260)"
       id="g3153">
      <path
         d="M 61.769358,385.22255 C 59.411888,375.86462 66.349282,348.30872 76.838737,325.36575 C 82.207372,313.62324 87.541578,299.94364 88.692529,294.96662 C 91.164473,284.27729 95.142707,282.10492 103.48166,286.89082 C 111.33121,291.39584 113.94323,291.30138 122.29308,286.21047 C 132.6295,279.90835 148.94802,280.43548 155.37734,287.27917 C 161.33849,293.62453 163.51126,312.94444 159.59741,324.8035 C 154.53012,340.15754 137.66215,353.78273 120.28098,356.56155 C 110.5049,358.1245 100.86321,353.78528 100.86321,347.82262 C 100.86321,345.86747 99.402854,344.84359 97.195815,345.25136 C 94.959482,345.66453 89.762896,353.47064 83.878533,365.25606 C 78.571099,375.88599 73.033109,386.02374 71.571888,387.7844 C 67.503787,392.68616 63.377968,391.6079 61.769358,385.22255 z M 128.57227,335.33201 C 138.56151,328.79743 143.18346,319.8454 142.36724,308.61316 C 141.75656,300.20936 141.40441,299.79713 134.32705,299.20126 C 119.8219,297.98001 105.06509,313.66741 105.0578,330.31627 C 105.0518,344.01157 112.78311,345.66069 128.57227,335.33201 z M 587.05624,362.16704 C 576.58654,356.93683 571.98952,346.87849 572.87141,331.13048 C 573.86499,313.38819 582.29021,297.81143 601.66203,277.90164 C 625.477,253.42533 653.98008,238.83835 682.66706,236.44584 C 693.79445,235.5178 696.09148,235.96776 699.95625,239.83253 C 702.40757,242.28383 704.41318,245.63557 704.41318,247.28083 C 704.41318,252.69312 693.90502,258.95632 684.74571,259.00326 C 674.47779,259.05589 651.77536,266.73335 637.89001,274.84882 C 610.21739,291.02243 587.81845,326.48299 598.51705,337.18159 C 603.71257,342.3771 618.40607,341.75213 626.89509,335.97455 C 637.94386,328.45482 642.12875,321.21211 643.19188,307.77006 C 644.70953,288.5808 652.16191,283.73194 656.33246,299.22019 C 661.46798,318.29204 651.11991,343.83948 633.74827,354.97634 C 617.20861,365.57984 599.38314,368.32501 587.05624,362.16704 z M 185.73744,361.87193 C 176.66498,357.9183 173.15978,351.34428 173.23601,338.42545 C 173.31797,324.53364 177.17658,317.57544 189.07362,309.86563 C 205.79187,299.03147 205.11966,300.19859 198.89921,292.80601 C 191.8455,284.42315 189.95727,278.42983 193.15571,274.57594 C 197.19378,269.71036 201.4183,270.96549 211.12808,279.91566 C 221.25919,289.25418 223.49638,289.86262 229.08984,284.80061 C 234.7817,279.64956 254.2103,278.44743 257.9985,283.01192 C 262.33358,288.23537 258.45045,292.9696 246.78687,296.68093 C 238.41637,299.34442 237.11276,300.46443 238.24972,304.01574 C 238.98775,306.32097 240.08099,314.12241 240.67915,321.35228 C 241.64094,332.97731 241.1446,335.43758 236.38729,342.62637 C 227.48589,356.07728 198.08011,367.25067 185.73744,361.87193 z M 214.33759,332.32081 C 222.14561,324.51279 221.90363,316.89577 213.81773,315.95677 C 209.74427,315.48373 206.70031,317.22265 201.76769,322.84058 C 193.02455,332.79847 192.96878,338.59412 201.61609,338.59412 C 205.9834,338.59412 210.08871,336.56969 214.33759,332.32081 z M 271.30058,356.49575 C 263.71412,353.19569 261.12407,349.19653 258.22936,336.31304 C 253.84723,316.80965 264.29994,294.88702 290.16103,269.34223 C 312.37506,247.39987 346.205,231.71549 371.3188,231.71549 C 378.06733,231.71549 382.09059,232.88523 384.50029,235.54791 C 392.75379,244.66791 385.55839,252.33773 366.53583,254.69685 C 325.04842,259.84199 281.329,294.98929 281.13597,323.35228 C 281.03196,338.63514 302.1762,340.30426 317.27606,326.20516 C 324.42121,319.53357 325.62533,316.92776 327.95124,303.1034 C 330.69102,286.81901 334.08446,282.65145 339.06176,289.45831 C 343.18396,295.09577 342.47498,311.65618 337.5476,324.82578 C 327.91727,350.56517 294.44879,366.56507 271.30058,356.49575 z M 450.90568,354.39268 C 444.72751,346.94845 462.6489,319.73319 473.72913,319.73319 C 479.53503,319.73319 486.46458,325.2393 486.46458,329.85259 C 486.46458,331.20259 489.24573,332.30715 492.64491,332.30715 C 499.92151,332.30715 508.68231,322.3341 510.82738,311.60876 C 512.74216,302.03484 505.52901,294.58527 494.34414,294.58527 C 484.00409,294.58527 479.6421,296.90969 466.00673,309.6857 C 453.06113,321.8154 445.29154,322.94939 446.03757,312.60025 C 446.62266,304.48351 455.32302,295.81304 470.48558,288.23622 C 491.19604,277.88708 517.92882,280.64033 523.89608,293.73705 C 528.15019,303.07378 526.79199,319.98273 520.82632,331.95427 C 510.79245,352.08964 493.04286,359.48831 482.27326,348.02459 C 475.35262,340.65791 470.36418,341.32881 466.69088,350.12025 C 464.38117,355.64814 462.37242,357.45506 458.53671,357.45506 C 455.7375,357.45506 452.30353,356.07699 450.90568,354.39268 z M 537.17954,331.88801 C 531.96525,326.67371 534.45737,316.91931 544.30055,304.01574 C 549.57602,297.10007 555.6624,287.43384 557.82584,282.53523 C 560.89684,275.5817 562.87537,273.62868 566.84878,273.62868 C 572.4461,273.62868 574.48228,277.04637 574.48228,286.44135 C 574.48228,299.86994 559.26145,325.91092 548.39994,331.06504 C 539.98046,335.06036 540.32651,335.03497 537.17954,331.88801 z "
         style="fill:#016128;fill-opacity:1"
         id="path3147" />
      <rect
         width="36.262691"
         height="36.262691"
         x="485.96362"
         y="-73.155838"
         transform="matrix(0.7071068,0.7071068,-0.7071068,0.7071068,0,0)"
         style="opacity:1;fill:#f6c106;fill-opacity:1;stroke:none;stroke-width:2.5999999;stroke-miterlimit:4;stroke-dasharray:none"
         id="rect3151" />
    </g>
  </g>
</svg>
